<?xml version="1.0" standalone="no"?>
<!DOCTYPE svg PUBLIC "-//W3C//DTD SVG 20010904//EN"
 "http://www.w3.org/TR/2001/REC-SVG-20010904/DTD/svg10.dtd">
<svg version="1.0" xmlns="http://www.w3.org/2000/svg"
 width="280.000000pt" height="280.000000pt" viewBox="0 0 280.000000 280.000000"
 preserveAspectRatio="xMidYMid meet">
<metadata>
Created by potrace 1.14, written by Peter Selinger 2001-2017
</metadata>
<g transform="translate(0.000000,280.000000) scale(0.100000,-0.100000)"
fill="#000000" stroke="none">
<path d="M115 2781 c-48 -22 -79 -54 -100 -103 -13 -33 -15 -181 -15 -1278 0
-1097 2 -1245 15 -1278 21 -49 52 -81 100 -103 38 -18 96 -19 1285 -19 1189 0
1247 1 1285 19 48 22 79 54 100 103 13 33 15 181 15 1280 0 1187 -1 1245 -19
1283 -22 48 -54 79 -103 100 -33 13 -181 15 -1280 15 -1187 0 -1245 -1 -1283
-19z m2567 -99 l33 -32 0 -1250 0 -1250 -33 -32 -32 -33 -1250 0 -1250 0 -32
33 -33 32 0 1249 0 1249 25 27 c14 15 34 31 45 36 11 4 577 7 1257 6 l1238 -2
32 -33z"/>
<path d="M473 1398 l-90 -193 46 -3 c37 -3 49 1 60 17 11 18 24 21 86 21 62 0
75 -3 86 -21 11 -16 23 -20 60 -17 l46 3 -91 192 c-50 106 -96 193 -102 193
-6 0 -51 -87 -101 -192z m181 -4 c42 -89 76 -165 76 -168 0 -3 -10 -6 -23 -6
-20 0 -31 17 -77 115 -29 64 -56 112 -60 108 -4 -4 -28 -56 -55 -115 -42 -92
-52 -108 -72 -108 -13 0 -23 3 -23 7 0 9 153 334 156 330 1 -1 36 -75 78 -163z
m-46 -79 c-3 -4 -21 -5 -40 -3 l-34 3 19 45 20 45 20 -42 c12 -24 18 -45 15
-48z m26 -40 c4 -12 -6 -15 -59 -15 -60 0 -75 6 -58 23 3 4 30 7 59 7 37 0 54
-4 58 -15z"/>
<path d="M1802 1576 c-35 -19 -62 -66 -62 -108 0 -49 37 -92 103 -116 60 -23
77 -43 58 -66 -18 -22 -48 -20 -63 4 -10 15 -24 20 -55 20 -48 0 -53 -11 -28
-60 45 -87 193 -76 231 17 31 72 -1 128 -92 162 -57 22 -74 42 -55 65 18 22
48 20 63 -4 10 -15 24 -20 55 -20 24 0 43 2 43 5 0 26 -38 89 -61 100 -34 18
-106 19 -137 1z m113 -10 c53 -22 74 -76 30 -76 -14 0 -25 5 -25 10 0 18 -52
32 -77 21 -26 -12 -40 -55 -24 -75 6 -7 39 -23 72 -36 51 -18 63 -27 75 -57
19 -44 11 -83 -24 -115 -34 -32 -63 -39 -107 -27 -34 10 -75 50 -75 75 0 21
44 17 58 -6 17 -28 87 -28 102 0 6 12 9 29 5 39 -5 18 -11 21 -96 60 -66 31
-85 81 -53 142 14 28 61 58 92 59 7 0 28 -6 47 -14z"/>
<path d="M810 1390 l0 -190 45 0 44 0 3 68 3 67 68 3 67 3 0 39 0 40 -70 0
-70 0 0 40 0 40 80 0 80 0 0 40 0 40 -125 0 -125 0 0 -190z m220 155 c0 -24
-2 -25 -75 -25 l-75 0 0 -60 0 -60 70 0 c68 0 70 -1 70 -25 0 -24 -2 -25 -70
-25 l-70 0 0 -65 c0 -63 -1 -65 -25 -65 l-25 0 0 168 c0 93 3 172 7 175 3 4
48 7 100 7 93 0 93 0 93 -25z"/>
<path d="M1100 1390 l0 -190 45 0 45 0 0 65 c0 36 3 65 8 65 4 0 26 -30 50
-65 l42 -65 55 0 c30 0 55 3 55 8 0 4 -21 34 -46 67 -42 55 -44 61 -27 72 53
38 63 54 63 107 0 98 -42 126 -190 126 l-100 0 0 -190z m185 170 c55 -12 85
-49 85 -106 0 -49 -22 -79 -65 -90 -14 -3 -25 -10 -25 -16 0 -5 18 -33 40 -62
22 -29 40 -56 40 -59 0 -4 -13 -7 -29 -7 -24 0 -35 10 -71 65 -33 50 -48 65
-66 65 -23 0 -24 -3 -24 -65 0 -63 -1 -65 -25 -65 l-25 0 0 168 c0 93 3 172 7
175 9 10 111 8 158 -3z"/>
<path d="M1170 1460 l0 -60 60 0 c65 0 100 21 100 60 0 39 -35 60 -100 60
l-60 0 0 -60z m125 0 l0 -35 -52 -3 -53 -3 0 41 0 41 53 -3 52 -3 0 -35z"/>
<path d="M1440 1390 l0 -190 130 0 130 0 0 40 0 40 -85 0 -85 0 0 35 0 35 75
0 75 0 0 40 0 40 -75 0 -75 0 0 35 0 35 80 0 80 0 0 40 0 40 -125 0 -125 0 0
-190z m230 155 c0 -25 -1 -25 -80 -25 l-80 0 0 -55 0 -55 75 0 c68 0 75 -2 75
-20 0 -18 -7 -20 -75 -20 l-75 0 0 -55 0 -55 85 0 c78 0 85 -2 85 -20 0 -19
-7 -20 -110 -20 l-110 0 0 168 c0 93 3 172 7 175 3 4 51 7 105 7 98 0 98 0 98
-25z"/>
<path d="M2060 1390 l0 -190 45 0 45 0 0 75 0 75 75 0 75 0 0 -75 0 -75 50 0
50 0 0 190 0 190 -50 0 -50 0 0 -75 0 -76 -72 3 -73 3 -3 73 -3 72 -44 0 -45
0 0 -190z m70 105 l0 -75 100 0 100 0 0 75 c0 68 2 75 20 75 19 0 20 -7 20
-175 0 -168 -1 -175 -20 -175 -18 0 -20 7 -20 75 l0 75 -100 0 -100 0 0 -75
c0 -73 -1 -75 -25 -75 l-25 0 0 168 c0 93 3 172 7 175 3 4 15 7 25 7 16 0 18
-9 18 -75z"/>
</g>
</svg>
